<?xml version="1.0" encoding="UTF-8" standalone="no"?>
<!-- Created with Inkscape (http://www.inkscape.org/) -->

<svg
   width="192.6875mm"
   height="201.59651mm"
   viewBox="0 0 192.6875 201.59652"
   version="1.1"
   id="svg991"
   inkscape:version="1.4 (e7c3feb100, 2024-10-09)"
   sodipodi:docname="favicon.svg"
   xmlns:inkscape="http://www.inkscape.org/namespaces/inkscape"
   xmlns:sodipodi="http://sodipodi.sourceforge.net/DTD/sodipodi-0.dtd"
   xmlns="http://www.w3.org/2000/svg"
   xmlns:svg="http://www.w3.org/2000/svg">
  <sodipodi:namedview
     id="namedview993"
     pagecolor="#505050"
     bordercolor="#ffffff"
     borderopacity="1"
     inkscape:pageshadow="0"
     inkscape:pageopacity="0"
     inkscape:pagecheckerboard="1"
     inkscape:document-units="mm"
     showgrid="false"
     inkscape:zoom="0.53795867"
     inkscape:cx="513.98001"
     inkscape:cy="409.88279"
     inkscape:window-width="1216"
     inkscape:window-height="1330"
     inkscape:window-x="0"
     inkscape:window-y="0"
     inkscape:window-maximized="0"
     inkscape:current-layer="layer1"
     inkscape:showpageshadow="0"
     inkscape:deskcolor="#505050" />
  <defs
     id="defs988" />
  <g
     inkscape:label="Layer 1"
     inkscape:groupmode="layer"
     id="layer1"
     transform="translate(-41.027443,48.979757)">
    <path
       id="path922"
       style="fill:#ffffff;fill-opacity:1;stroke:#000000;stroke-width:3.51033;stroke-linejoin:round;stroke-dashoffset:73.3228;stroke-opacity:1;stop-color:#000000"
       inkscape:transform-center-x="0.63497657"
       inkscape:transform-center-y="-0.64853615"
       d="m 137.40639,-47.224729 -12.76314,18.822753 -17.9685,-13.986433 -6.29832,21.830481 -21.4288,-7.772399 0.783116,22.7005102 -22.791543,-0.796333 7.788506,21.3478768 -21.923128,6.257019 14.030308,17.906666 -0.04265,0.02866 h 28.048289 c -0.07297,-1.238806 -0.223739,-2.679688 -0.446026,-4.457604 -0.551286,-4.409341 -1.026247,-8.890135 -1.054946,-9.956679 -0.02871,-1.066553 -0.322748,-6.197144 -0.654652,-11.401432 -0.618404,-9.6966148 0.342357,-13.69904583 4.175588,-17.3887428 3.66112,-3.524001 7.481597,-2.0816 17.945888,6.773918 6.40918,5.423851 10.76864,8.3657418 12.39522,8.3655538 7.81476,-9.9e-4 26.15732,-1.6149178 28.55648,-2.5128378 3.02912,-1.133666 8.99,-7.75317403 12.83919,-14.25819 1.87368,-3.166465 3.71431,-4.7759822 5.38572,-4.7539222 0.65405,0.0086 1.28188,0.267307 1.87609,0.7799532 0.76673,0.661476 1.58018,5.548096 1.88689,11.335411 0.63887,12.0564848 1.91761,14.1292208 11.24931,18.2367658 3.43355,1.511343 7.37373,3.856128 8.7561,5.209918 1.89218,1.853056 4.36385,7.416984 6.60715,14.027888 h 23.5798 l 14.02157,-17.868285 -21.9185,-6.272885 7.80341,-21.3422448 -22.79206,0.779952 0.79957,-22.6994842 -21.43498,7.756536 -6.28239,-21.834063 -17.97878,13.973637 z m -80.63676,111.79115 -13.987146,17.82479 21.919018,6.27288 -7.803923,21.342239 22.792574,-0.78046 -0.799562,22.69949 21.434449,-7.75654 6.28292,21.83458 17.97877,-13.97415 12.74927,18.83248 12.76365,-18.82327 17.9685,13.98643 6.29832,-21.82996 21.4288,7.77137 -0.78363,-22.69948 22.79155,0.79632 -7.78799,-21.348379 21.92312,-6.25702 -14.019,-17.89132 h -17.74549 c 0.0258,0.50616 0.0422,0.99503 0.038,1.44323 -0.0567,6.09202 -2.03525,15.17222 -4.38524,20.12574 -1.94708,4.10423 -8.10069,11.87094 -10.95541,13.82778 -5.55636,3.808739 -14.69088,7.956419 -20.02494,9.092279 -8.28314,1.76387 -27.08721,1.52179 -35.86608,-0.46163 C 104.75215,103.11994 96.885633,97.668001 89.606989,81.306741 87.51109,76.595491 85.166723,69.731601 83.833306,64.566421 Z"
       sodipodi:nodetypes="ccccccccccccssscscsscscssccccccccccccccccccccccccccccccccssssscc" />
  </g>
</svg>
