<?xml version="1.0" encoding="UTF-8"?>
<!-- Created with Inkscape (http://www.inkscape.org/) -->
<svg width="189.18mm" height="198.09mm" version="1.1" viewBox="0 0 189.18 198.09" xmlns="http://www.w3.org/2000/svg">
 <g transform="translate(-42.782 47.225)">
  <path d="m137.41-47.225-12.763 18.823-17.968-13.986-6.2983 21.83-21.429-7.7724 0.78312 22.701-22.792-0.79633 7.7885 21.348-21.923 6.257 14.03 17.907-0.04265 0.02866h28.048c-0.07297-1.2388-0.22374-2.6797-0.44603-4.4576-0.55129-4.4093-1.0262-8.8901-1.0549-9.9567-0.02871-1.0666-0.32275-6.1971-0.65465-11.401-0.6184-9.6966 0.34236-13.699 4.1756-17.389 3.6611-3.524 7.4816-2.0816 17.946 6.7739 6.4092 5.4239 10.769 8.3657 12.395 8.3656 7.8148-9.9e-4 26.157-1.6149 28.556-2.5128 3.0291-1.1337 8.99-7.7532 12.839-14.258 1.8737-3.1665 3.7143-4.776 5.3857-4.7539 0.65405 0.0086 1.2819 0.26731 1.8761 0.77995 0.76673 0.66148 1.5802 5.5481 1.8869 11.335 0.63887 12.056 1.9176 14.129 11.249 18.237 3.4336 1.5113 7.3737 3.8561 8.7561 5.2099 1.8922 1.8531 4.3638 7.417 6.6072 14.028h23.58l14.022-17.868-21.918-6.2729 7.8034-21.342-22.792 0.77995 0.79957-22.699-21.435 7.7565-6.2824-21.834-17.979 13.974zm-80.637 111.79-13.987 17.825 21.919 6.2729-7.8039 21.342 22.793-0.78046-0.79956 22.699 21.434-7.7565 6.2829 21.835 17.979-13.974 12.749 18.832 12.764-18.823 17.968 13.986 6.2983-21.83 21.429 7.7714-0.78363-22.699 22.792 0.79632-7.788-21.348 21.923-6.257-14.019-17.891h-17.745c0.0258 0.50616 0.0422 0.99503 0.038 1.4432-0.0567 6.092-2.0352 15.172-4.3852 20.126-1.9471 4.1042-8.1007 11.871-10.955 13.828-5.5564 3.8087-14.691 7.9564-20.025 9.0923-8.2831 1.7639-27.087 1.5218-35.866-0.46163-24.228-5.4739-32.095-10.926-39.373-27.287-2.0959-4.7112-4.4403-11.575-5.7737-16.74z" stop-color="#000000"/>
 </g>
</svg>
